# xmcd
#
# Track frame offsets:
# 150
# 20460
# 32631
# 57884
# 76905
# 87145
# 110170
# 119134
# 138133
# 154219
# 175667
# 190774
#
# Disc length: 2805 seconds
#
#
# Revision: 0
# Processed by: cddbd v1.5.1PL0 Copyright (c) Steve Scherf et al.
# Submitted via: FreeRIP 2.91 
#
DISCID=960af30c
DTITLE=Chuck Deely - Return 2 Dreamland
DYEAR=2002
DGENRE=Country
TTITLE0=Dreamland
TTITLE1=Mister
TTITLE2=I will not be your fool
TTITLE3=George W Cartoon
TTITLE4=He don't rock 'n roll
TTITLE5=Nomore
TTITLE6=Get out of Denver
TTITLE7=One step at a time
TTITLE8=Wooly bully
TTITLE9=For all my friends
TTITLE10=Smoke that cigarette
TTITLE11=Borderline
EXTD=Connector Production\nhttp://home.wanadoo.nl/connecter
EXTT0=
EXTT1=
EXTT2=
EXTT3=
EXTT4=
EXTT5=
EXTT6=
EXTT7=
EXTT8=
EXTT9=
EXTT10=
EXTT11=
PLAYORDER=
